<?xml version="1.0" standalone="no"?>
<!DOCTYPE svg PUBLIC "-//W3C//DTD SVG 20010904//EN"
 "http://www.w3.org/TR/2001/REC-SVG-20010904/DTD/svg10.dtd">
<svg version="1.0" xmlns="http://www.w3.org/2000/svg"
 width="272.000000pt" height="272.000000pt" viewBox="0 0 272.000000 272.000000"
 preserveAspectRatio="xMidYMid meet">

<g transform="translate(0.000000,272.000000) scale(0.100000,-0.100000)"
fill="#000000" stroke="none">
<path d="M765 2454 c-330 -145 -604 -265 -609 -267 -5 -2 23 -300 63 -662 60
-548 75 -663 89 -676 23 -22 1042 -770 1057 -775 10 -4 1029 735 1066 774 13
14 31 150 88 657 39 352 71 649 71 660 0 17 -97 62 -606 285 -333 146 -608
266 -612 267 -4 1 -277 -117 -607 -263z m525 -53 c0 -89 7 -81 -94 -101 -174
-35 -372 -157 -471 -292 l-20 -27 -108 62 c-59 34 -106 66 -104 71 3 8 772
365 790 366 4 0 7 -36 7 -79z m575 -105 c209 -95 380 -177 382 -182 2 -6 -45
-37 -104 -71 l-108 -62 -29 37 c-66 81 -178 172 -274 221 -51 26 -205 71 -243
71 l-29 0 0 85 c0 65 3 83 13 79 7 -2 184 -83 392 -178z m-399 -38 c3 -5 8
-35 11 -66 l5 -57 -122 0 -122 0 5 59 c3 33 11 63 19 68 17 11 197 8 204 -4z
m-456 -102 c-4 -20 -10 -39 -12 -41 -2 -2 -31 -10 -65 -18 -51 -11 -60 -12
-56 0 3 7 9 13 13 13 4 0 19 11 34 25 15 14 31 25 37 25 5 0 19 9 31 20 12 11
23 19 24 17 2 -1 -1 -20 -6 -41z m763 -1 c59 -36 108 -78 82 -72 -11 3 -45 11
-76 17 -45 9 -58 16 -63 33 -15 55 -4 59 57 22z m-543 -122 c0 -54 -4 -103 -8
-109 -4 -6 -59 -14 -131 -17 l-123 -6 6 47 c13 94 28 153 39 158 15 5 142 21
185 23 l32 1 0 -97z m385 86 c50 -6 94 -15 99 -19 9 -9 34 -136 35 -177 1 -22
0 -22 -124 -16 l-125 6 0 -115 c0 -112 -1 -116 -25 -132 -38 -25 -180 -22
-223 4 l-33 20 3 108 3 107 138 3 137 3 -6 109 c-8 127 -21 116 121 99z m-831
-137 c-7 -32 -24 -45 -24 -17 0 16 22 57 27 51 2 -1 0 -17 -3 -34z m1186 -14
c0 -10 -7 -18 -15 -18 -8 0 -15 6 -15 14 0 8 -3 22 -6 31 -6 15 -4 15 15 4 11
-8 21 -22 21 -31z m-1466 -116 c50 -30 92 -55 93 -56 2 -1 -9 -47 -23 -102
-23 -88 -25 -113 -21 -224 4 -98 11 -143 32 -210 39 -125 41 -118 -45 -167
-41 -23 -77 -39 -81 -35 -3 4 -23 183 -43 397 -20 215 -40 410 -43 434 -7 50
-17 53 131 -37z m1826 -383 c-23 -233 -42 -425 -44 -426 -7 -7 -176 101 -176
113 0 8 6 27 14 42 7 15 23 66 35 114 30 118 30 274 0 394 -12 49 -18 90 -13
91 5 2 56 32 114 66 84 51 106 60 108 46 2 -9 -15 -207 -38 -440z m-1367 424
c2 -5 1 -18 -2 -30 l-6 -23 -35 22 -35 22 30 7 c43 10 43 10 48 2z m853 -3
c36 0 29 -17 -15 -39 l-39 -20 -4 29 c-5 34 0 43 20 35 7 -3 25 -5 38 -5z
m-991 -229 l30 -21 -26 0 c-15 0 -41 -3 -58 -6 -31 -6 -31 -6 -31 35 l0 42 28
-15 c15 -8 41 -24 57 -35z m1159 7 c8 -33 -6 -41 -55 -33 l-43 7 40 24 c48 29
50 29 58 2z m-1254 -164 c0 -115 -2 -125 -17 -121 -10 3 -39 8 -64 12 -42 5
-47 9 -53 37 -8 39 -8 107 0 146 5 27 12 33 48 41 91 20 86 27 86 -115z m1377
105 c22 -8 23 -13 23 -96 0 -49 -4 -93 -8 -100 -4 -6 -25 -14 -47 -18 -22 -3
-50 -8 -62 -11 -23 -4 -23 -4 -23 122 l0 126 47 -7 c25 -4 57 -11 70 -16z
m-1015 -105 c125 -74 129 -78 126 -108 l-3 -31 -133 4 -133 3 6 -103 c3 -57 8
-114 11 -126 4 -21 1 -23 -33 -23 -37 1 -160 24 -168 32 -7 7 -25 133 -25 179
l0 47 105 -6 105 -5 0 107 c0 58 3 106 7 106 4 0 65 -34 135 -76z m678 -35 l0
-102 105 5 c58 3 107 3 109 -1 4 -6 -9 -135 -19 -188 -7 -37 -35 -49 -145 -59
l-66 -6 7 78 c4 44 8 101 8 128 l1 48 -132 -3 -133 -4 0 28 c0 24 13 35 125
102 69 40 128 74 133 74 4 1 7 -45 7 -100z m-510 -240 c0 -119 -2 -130 -17
-127 -16 3 -18 19 -21 131 -2 122 -2 127 18 127 19 0 20 -6 20 -131z m240 -1
l0 -131 126 6 126 6 -7 -57 c-11 -90 -26 -141 -44 -146 -21 -7 -167 -26 -193
-26 -20 0 -21 3 -14 110 4 72 3 110 -4 110 -6 0 -10 48 -10 130 0 80 4 130 10
130 6 0 10 -51 10 -132z m-768 -82 c23 -5 28 -13 38 -63 7 -32 15 -64 17 -73
3 -8 -5 -2 -18 14 -13 16 -32 37 -41 47 -16 17 -48 72 -48 83 0 3 6 4 13 2 6
-3 24 -7 39 -10z m1305 -3 c-8 -10 -15 -20 -15 -23 1 -3 -13 -27 -30 -55 -17
-27 -32 -46 -32 -41 0 6 -7 1 -16 -10 -10 -12 -14 -13 -11 -4 2 8 10 41 17 73
11 49 17 58 39 63 14 3 31 7 36 9 23 8 27 4 12 -12z m-815 -57 c4 -6 8 -55 8
-108 0 -73 -3 -98 -13 -98 -23 0 -182 21 -199 26 -17 5 -29 49 -44 156 l-6 47
123 -6 c72 -3 127 -11 131 -17z m885 -136 c42 -25 78 -49 80 -55 2 -8 -275
-211 -639 -468 l-69 -49 3 152 3 152 75 22 c150 44 308 142 408 251 31 35 58
58 60 52 2 -7 37 -32 79 -57z m-1223 -108 c96 -67 201 -117 296 -141 l75 -19
3 -152 3 -152 -58 41 c-272 193 -647 468 -650 477 -2 5 34 31 79 57 l82 46 47
-53 c26 -29 81 -76 123 -104z m50 73 c54 -8 76 -26 76 -61 0 -13 -2 -24 -4
-24 -2 0 -23 11 -47 25 -48 26 -114 82 -88 72 9 -3 37 -9 63 -12z m926 10 c0
-7 -118 -85 -129 -85 -5 0 -12 -6 -15 -12 -3 -7 -3 5 0 27 3 22 7 42 9 44 2 1
30 9 62 16 75 16 73 16 73 10z m-601 -112 c-1 -53 -3 -61 -9 -38 -11 45 -11
105 0 105 6 0 10 -28 9 -67z"/>
</g>
</svg>
